<svg xmlns="http://www.w3.org/2000/svg" viewBox="0 0 527 200" role="img" aria-label="Monzon Labs">
  
  <polyline points="23.0,142.5 54.0,49.5 85.0,117.7 116.0,49.5 147.0,142.5" fill="none" stroke="#0D1B33" stroke-width="9" stroke-linecap="round" stroke-linejoin="round"/>
  <circle cx="23.0" cy="142.5" r="13.5" fill="#0D1B33"/>
  <circle cx="54.0" cy="49.5" r="11" fill="#0D1B33"/>
  <circle cx="85.0" cy="117.7" r="11" fill="#D4A853"/>
  <circle cx="116.0" cy="49.5" r="11" fill="#0D1B33"/>
  <circle cx="147.0" cy="142.5" r="13.5" fill="#0D1B33"/>
  <path d="M 185.03 96.00 L 185.03 43.76 L 193.32 43.76 L 213.89 75.80 L 209.67 75.80 L 230.17 43.76 L 238.53 43.76 L 238.53 96.00 L 226.92 96.00 L 226.92 63.37 L 228.99 63.88 L 215.59 84.75 L 207.90 84.75 L 194.58 63.88 L 196.58 63.37 L 196.58 96.00 L 185.03 96.00 Z M 273.46 96.89 Q 267.54 96.89 262.55 94.82 Q 257.55 92.74 253.77 89.04 Q 250.00 85.34 247.93 80.43 Q 245.86 75.50 245.86 69.80 Q 245.86 64.03 247.93 59.15 Q 250.00 54.26 253.70 50.61 Q 257.40 46.94 262.40 44.91 Q 267.39 42.87 273.31 42.87 Q 279.16 42.87 284.16 44.91 Q 289.15 46.94 292.89 50.61 Q 296.62 54.26 298.69 59.19 Q 300.77 64.11 300.77 69.88 Q 300.77 75.58 298.69 80.51 Q 296.62 85.42 292.92 89.09 Q 289.22 92.74 284.23 94.82 Q 279.23 96.89 273.46 96.89 Z M 273.31 86.31 Q 277.97 86.31 281.49 84.24 Q 285.00 82.16 286.92 78.42 Q 288.85 74.69 288.85 69.80 Q 288.85 66.10 287.74 63.10 Q 286.63 60.11 284.56 57.92 Q 282.49 55.74 279.64 54.59 Q 276.79 53.45 273.31 53.45 Q 268.65 53.45 265.14 55.48 Q 261.62 57.52 259.69 61.19 Q 257.77 64.85 257.77 69.80 Q 257.77 73.50 258.88 76.54 Q 259.99 79.57 262.03 81.75 Q 264.06 83.94 266.94 85.13 Q 269.83 86.31 273.31 86.31 Z M 308.17 96.00 L 308.17 43.76 L 316.31 43.76 L 319.79 54.19 L 319.79 96.00 L 308.17 96.00 Z M 344.21 96.00 L 313.43 56.56 L 316.31 43.76 L 347.10 83.20 L 344.21 96.00 Z M 344.21 96.00 L 341.10 85.57 L 341.10 43.76 L 352.72 43.76 L 352.72 96.00 L 344.21 96.00 Z M 359.97 87.86 L 386.24 51.82 L 400.30 51.82 L 373.96 87.86 L 359.97 87.86 Z M 359.97 96.00 L 359.97 87.86 L 367.67 86.01 L 399.63 86.01 L 399.63 96.00 L 359.97 96.00 Z M 361.45 53.75 L 361.45 43.76 L 400.30 43.76 L 400.30 51.82 L 392.46 53.75 L 361.45 53.75 Z M 432.71 96.89 Q 426.79 96.89 421.79 94.82 Q 416.80 92.74 413.02 89.04 Q 409.25 85.34 407.18 80.43 Q 405.11 75.50 405.11 69.80 Q 405.11 64.03 407.18 59.15 Q 409.25 54.26 412.95 50.61 Q 416.65 46.94 421.64 44.91 Q 426.64 42.87 432.56 42.87 Q 438.41 42.87 443.41 44.91 Q 448.40 46.94 452.13 50.61 Q 455.87 54.26 457.94 59.19 Q 460.02 64.11 460.02 69.88 Q 460.02 75.58 457.94 80.51 Q 455.87 85.42 452.17 89.09 Q 448.47 92.74 443.47 94.82 Q 438.48 96.89 432.71 96.89 Z M 432.56 86.31 Q 437.22 86.31 440.73 84.24 Q 444.25 82.16 446.17 78.42 Q 448.10 74.69 448.10 69.80 Q 448.10 66.10 446.99 63.10 Q 445.88 60.11 443.81 57.92 Q 441.74 55.74 438.88 54.59 Q 436.04 53.45 432.56 53.45 Q 427.90 53.45 424.38 55.48 Q 420.87 57.52 418.94 61.19 Q 417.02 64.85 417.02 69.80 Q 417.02 73.50 418.13 76.54 Q 419.24 79.57 421.27 81.75 Q 423.31 83.94 426.19 85.13 Q 429.08 86.31 432.56 86.31 Z M 467.41 96.00 L 467.41 43.76 L 475.55 43.76 L 479.03 54.19 L 479.03 96.00 L 467.41 96.00 Z M 503.45 96.00 L 472.67 56.56 L 475.55 43.76 L 506.34 83.20 L 503.45 96.00 Z M 503.45 96.00 L 500.34 85.57 L 500.34 43.76 L 511.96 43.76 L 511.96 96.00 L 503.45 96.00 Z" fill="#0D1B33"/>
  <path d="M 186.28 152.00 L 186.28 124.24 L 190.04 124.24 L 190.04 152.00 L 186.28 152.00 Z M 188.84 152.00 L 188.84 148.56 L 203.72 148.56 L 203.72 152.00 L 188.84 152.00 Z" fill="#D4A853"/>
  <path d="M 223.68 152.00 L 235.04 124.24 L 237.76 124.24 L 249.07 152.00 L 245.00 152.00 L 235.68 128.52 L 237.07 128.52 L 227.68 152.00 L 223.68 152.00 Z M 229.07 145.72 L 229.07 142.44 L 243.68 142.44 L 243.68 145.72 L 229.07 145.72 Z" fill="#D4A853"/>
  <path d="M 275.64 152.00 L 275.64 148.72 L 284.04 148.72 Q 286.44 148.72 287.79 147.30 Q 289.16 145.88 289.16 143.88 Q 289.16 142.52 288.56 141.42 Q 287.96 140.32 286.81 139.68 Q 285.67 139.04 284.16 139.04 L 275.64 139.04 L 275.64 135.76 L 283.60 135.76 Q 285.60 135.76 286.77 134.70 Q 287.96 133.64 287.96 131.64 Q 287.96 129.64 286.71 128.58 Q 285.47 127.52 283.44 127.52 L 275.64 127.52 L 275.64 124.24 L 283.52 124.24 Q 286.24 124.24 288.06 125.22 Q 289.88 126.20 290.81 127.80 Q 291.76 129.40 291.76 131.32 Q 291.76 133.56 290.54 135.24 Q 289.32 136.92 286.96 137.88 L 287.27 136.68 Q 289.96 137.64 291.46 139.58 Q 292.96 141.52 292.96 144.16 Q 292.96 146.36 291.88 148.12 Q 290.80 149.88 288.77 150.94 Q 286.76 152.00 283.84 152.00 L 275.64 152.00 Z M 273.12 152.00 L 273.12 124.24 L 276.88 124.24 L 276.88 152.00 L 273.12 152.00 Z" fill="#D4A853"/>
  <path d="M 322.67 152.40 Q 319.39 152.40 317.07 151.20 Q 314.76 150.00 312.96 147.72 L 315.51 145.16 Q 316.84 147.00 318.56 147.94 Q 320.27 148.88 322.79 148.88 Q 325.27 148.88 326.77 147.80 Q 328.27 146.72 328.27 144.84 Q 328.27 143.28 327.56 142.32 Q 326.84 141.36 325.61 140.74 Q 324.39 140.12 322.95 139.62 Q 321.51 139.12 320.07 138.54 Q 318.64 137.96 317.44 137.10 Q 316.24 136.24 315.49 134.84 Q 314.76 133.44 314.76 131.32 Q 314.76 128.96 315.89 127.30 Q 317.04 125.64 319.01 124.74 Q 320.99 123.84 323.47 123.84 Q 326.19 123.84 328.35 124.90 Q 330.51 125.96 331.87 127.68 L 329.31 130.24 Q 328.07 128.80 326.66 128.08 Q 325.24 127.36 323.39 127.36 Q 321.16 127.36 319.83 128.34 Q 318.51 129.32 318.51 131.08 Q 318.51 132.48 319.25 133.34 Q 319.99 134.20 321.19 134.80 Q 322.39 135.40 323.85 135.90 Q 325.31 136.40 326.75 137.00 Q 328.19 137.60 329.39 138.52 Q 330.59 139.44 331.33 140.90 Q 332.07 142.36 332.07 144.56 Q 332.07 148.24 329.53 150.32 Q 326.99 152.40 322.67 152.40 Z" fill="#D4A853"/>
</svg>